<svg width="16" height="22" viewBox="0 0 16 22" fill="none" xmlns="http://www.w3.org/2000/svg">
<path d="M12.2656 6.4582V0.71875H9.64063V6.49922L10.9941 5.53125L12.2656 6.4582Z" fill="#D6E7FF"/>
<path d="M13.9035 0.71875V8.82617C13.9035 9.0668 13.7066 9.26367 13.466 9.26367C13.373 9.26367 13.2828 9.23359 13.209 9.17891L10.9832 7.55469L8.6918 9.19258C8.64522 9.22627 8.59243 9.25039 8.53648 9.26355C8.48052 9.27671 8.42251 9.27864 8.3658 9.26923C8.3091 9.25982 8.25482 9.23926 8.20611 9.20874C8.1574 9.17821 8.11523 9.13833 8.08203 9.09141C8.02734 9.01758 8 8.92734 8 8.83711V0.71875H0.34375V21.2812H15.6535V0.71875H13.9035Z" fill="#D6E7FF"/>
</svg>
