<svg width="20" height="24" viewBox="0 0 20 24" fill="none" xmlns="http://www.w3.org/2000/svg">
<path d="M18.5708 0H4.21366C4.0958 0 3.99937 0.0964286 3.99937 0.214286V1.71429C3.99937 1.83214 4.0958 1.92857 4.21366 1.92857H17.4994V20.3571C17.4994 20.475 17.5958 20.5714 17.7137 20.5714H19.2137C19.3315 20.5714 19.4279 20.475 19.4279 20.3571V0.857143C19.4279 0.383036 19.0449 0 18.5708 0ZM15.1422 3.42857H1.42794C0.953837 3.42857 0.570801 3.81161 0.570801 4.28571V18.5009C0.570801 18.7286 0.661872 18.9455 0.822586 19.1063L5.46455 23.7482C5.52348 23.8071 5.59044 23.8554 5.66277 23.8955V23.9464H5.77527C5.86902 23.9813 5.96812 24 6.06991 24H15.1422C15.6163 24 15.9994 23.617 15.9994 23.1429V4.28571C15.9994 3.81161 15.6163 3.42857 15.1422 3.42857ZM5.66009 21.2196L3.35384 18.9107H5.66009V21.2196ZM14.0708 22.0714H7.37437V18.2679C7.37437 17.6759 6.89491 17.1964 6.30294 17.1964H2.49937V5.35714H14.0708V22.0714Z" fill="black" fill-opacity="0.85"/>
</svg>
