<svg width="22" height="22" viewBox="0 0 22 22" fill="none" xmlns="http://www.w3.org/2000/svg">
<path d="M11 0.5C5.20156 0.5 0.5 5.20156 0.5 11C0.5 16.7984 5.20156 21.5 11 21.5C16.7984 21.5 21.5 16.7984 21.5 11C21.5 5.20156 16.7984 0.5 11 0.5ZM11 19.7188C6.18594 19.7188 2.28125 15.8141 2.28125 11C2.28125 6.18594 6.18594 2.28125 11 2.28125C15.8141 2.28125 19.7188 6.18594 19.7188 11C19.7188 15.8141 15.8141 19.7188 11 19.7188Z" fill="black" fill-opacity="0.85"/>
<path d="M13.6153 6.42192C12.9121 5.80552 11.984 5.46802 10.9996 5.46802C10.0153 5.46802 9.08713 5.80786 8.38401 6.42192C7.65276 7.06177 7.24963 7.92192 7.24963 8.84302V9.02114C7.24963 9.12427 7.33401 9.20864 7.43713 9.20864H8.56213C8.66526 9.20864 8.74963 9.12427 8.74963 9.02114V8.84302C8.74963 7.80942 9.75979 6.96802 10.9996 6.96802C12.2395 6.96802 13.2496 7.80942 13.2496 8.84302C13.2496 9.57192 12.734 10.2399 11.9348 10.5469C11.4379 10.7368 11.016 11.0696 10.7137 11.5055C10.4067 11.9508 10.2473 12.4852 10.2473 13.0266V13.5305C10.2473 13.6336 10.3317 13.718 10.4348 13.718H11.5598C11.6629 13.718 11.7473 13.6336 11.7473 13.5305V12.9985C11.7485 12.771 11.8183 12.5491 11.9474 12.3618C12.0766 12.1745 12.2593 12.0305 12.4715 11.9485C13.8543 11.4165 14.7473 10.1977 14.7473 8.84302C14.7496 7.92192 14.3465 7.06177 13.6153 6.42192ZM10.0621 16.1555C10.0621 16.4042 10.1609 16.6426 10.3367 16.8184C10.5125 16.9942 10.751 17.093 10.9996 17.093C11.2483 17.093 11.4867 16.9942 11.6625 16.8184C11.8384 16.6426 11.9371 16.4042 11.9371 16.1555C11.9371 15.9069 11.8384 15.6684 11.6625 15.4926C11.4867 15.3168 11.2483 15.218 10.9996 15.218C10.751 15.218 10.5125 15.3168 10.3367 15.4926C10.1609 15.6684 10.0621 15.9069 10.0621 16.1555Z" fill="black" fill-opacity="0.85"/>
</svg>
