<svg width="24" height="24" viewBox="0 0 24 24" fill="gray" xmlns="http://www.w3.org/2000/svg">
<path d="M23.6214 11.9475C23.6214 11.9447 23.6187 11.9447 23.6187 11.9419L23.5711 11.883C23.5684 11.8802 23.5658 11.8746 23.5605 11.8718C23.542 11.8494 23.5208 11.827 23.5022 11.8045L13.2721 0.982491L12.5864 0.256537C12.4302 0.0922208 12.2189 0 11.9987 0C11.7784 0 11.5672 0.0922208 11.4109 0.256537L0.495091 11.8073C0.297889 12.015 0.152353 12.2712 0.0714837 12.5529L0.0555985 12.6118L0.0476558 12.6426L0.0397132 12.6762C0.0344181 12.6959 0.0317706 12.7155 0.029123 12.7351C0.029123 12.7379 0.029123 12.7435 0.0264754 12.7463C0.0105902 12.8304 0.00264754 12.9145 0 13.0014V13.0939C0 13.1079 6.0558e-08 13.1219 0.0026476 13.1359C0.0026476 13.1499 0.00264756 13.1611 0.00529511 13.1752C0.00529511 13.1892 0.00794261 13.2032 0.00794261 13.2172C0.00794261 13.234 0.0105902 13.2508 0.0132377 13.2677C0.0132377 13.2761 0.0158853 13.2845 0.0158853 13.2929L0.0238279 13.363V13.3658C0.158853 14.2206 0.876337 14.8653 1.71826 14.8653H2.84346V24H21.1565V14.8709H22.3056C22.5332 14.8709 22.753 14.8233 22.9542 14.7336C23.1554 14.6439 23.3434 14.5121 23.5049 14.344C23.6626 14.1775 23.7876 13.9796 23.8726 13.7616C23.9576 13.5437 24.0009 13.31 24 13.0743C24 12.6622 23.8676 12.267 23.6214 11.9475ZM13.4813 21.9819H10.516V16.264H13.4813V21.9819ZM19.2503 12.8528V21.9819H15.1757V15.5913C15.1757 14.9718 14.7018 14.4701 14.1167 14.4701H9.88064C9.29553 14.4701 8.82162 14.9718 8.82162 15.5913V21.9819H4.74705V12.8528H2.2054L12.0013 2.49046L12.6129 3.13793L21.7946 12.8528H19.2503Z" fill="#345179"/>
</svg>
