<svg width="18" height="18" viewBox="0 0 18 18" fill="none" xmlns="http://www.w3.org/2000/svg">
<path d="M16.3932 0.966797C16.3168 0.966797 16.2385 0.980859 16.1601 1.013L4.58067 5.66568H1.28603C1.10924 5.66568 0.9646 5.81434 0.9646 5.99916V12.0059C0.9646 12.1907 1.10924 12.3393 1.28603 12.3393H3.32911C3.25478 12.5724 3.2146 12.8195 3.2146 13.0706C3.2146 14.3945 4.2954 15.4713 5.62531 15.4713C6.73826 15.4713 7.67643 14.7159 7.95366 13.6954L16.1621 16.994C16.2405 17.0242 16.3188 17.0402 16.3952 17.0402C16.7347 17.0402 17.038 16.755 17.038 16.3733V1.63376C17.036 1.25206 16.7347 0.966797 16.3932 0.966797ZM5.62531 14.0309C5.09295 14.0309 4.66103 13.6009 4.66103 13.0706C4.66103 12.8456 4.73938 12.6306 4.88201 12.4599L6.58759 13.1449C6.54741 13.6391 6.13156 14.0309 5.62531 14.0309ZM15.5896 15.2041L5.11906 10.9974L4.85991 10.8929H2.41103V7.11211H4.85991L5.11906 7.00765L15.5896 2.80095V15.2041Z" fill="#345179"/>
</svg>
