<svg width="22" height="22" viewBox="0 0 22 22" fill="none" xmlns="http://www.w3.org/2000/svg">
<path d="M2.44576 15.6725C2.34127 15.9989 2.28761 16.3449 2.28761 16.6965C2.28761 16.3449 2.34409 15.9989 2.44859 15.6725H2.44576ZM4.60058 8.35271H1.15796V13.6471H4.60058L4.96489 13.7933L19.6843 19.6841V2.31567L4.96489 8.20642L4.60058 8.35271Z" fill="#D6E7FF"/>
<path d="M21.1174 0C21.0129 0 20.9056 0.0192477 20.7984 0.0632422L4.94938 6.43145H0.439945C0.197975 6.43145 0 6.63492 0 6.88789V15.1094C0 15.3623 0.197975 15.5658 0.439945 15.5658H3.23635C3.13461 15.8848 3.07962 16.223 3.07962 16.5667C3.07962 18.3787 4.55893 19.8525 6.3792 19.8525C7.90251 19.8525 9.1866 18.8186 9.56605 17.4218L20.8011 21.9368C20.9084 21.978 21.0156 22 21.1201 22C21.5848 22 22 21.6096 22 21.0871V0.912886C21.9972 0.390451 21.5848 0 21.1174 0ZM6.3792 17.881C5.65054 17.881 5.05937 17.2926 5.05937 16.5667C5.05937 16.2587 5.1666 15.9645 5.36183 15.7308L7.69629 16.6684C7.64129 17.3448 7.07212 17.881 6.3792 17.881ZM20.0175 19.4868L5.68629 13.729L5.33158 13.5861H1.97975V8.4112H5.33158L5.68629 8.26822L20.0175 2.51044V19.4868Z" fill="#345179"/>
</svg>
