<svg width="18" height="18" viewBox="0 0 18 18" fill="none" xmlns="http://www.w3.org/2000/svg">
<path d="M15.2722 12.7778C14.7694 12.2745 14.1819 11.8638 13.5365 11.5644C14.4466 10.8271 15.0272 9.70209 15.0272 8.44048C15.0272 6.21459 13.1709 4.38847 10.945 4.42263C8.75327 4.45678 6.98742 6.24272 6.98742 8.44048C6.98742 9.70209 7.57001 10.8271 8.47804 11.5644C7.83259 11.8636 7.245 12.2743 6.74233 12.7778C5.64545 13.8766 5.02269 15.3271 4.98251 16.874C4.98197 16.8954 4.98573 16.9167 4.99357 16.9367C5.0014 16.9567 5.01316 16.9749 5.02813 16.9902C5.04311 17.0056 5.06101 17.0178 5.08078 17.0261C5.10054 17.0344 5.12177 17.0387 5.14322 17.0387H6.26822C6.35461 17.0387 6.42693 16.9704 6.42894 16.884C6.46711 15.7188 6.9392 14.628 7.76889 13.8003C8.19346 13.3735 8.69846 13.0351 9.25468 12.8048C9.81089 12.5744 10.4073 12.4567 11.0093 12.4583C12.2327 12.4583 13.3838 12.9345 14.2497 13.8003C15.0774 14.628 15.5495 15.7188 15.5897 16.884C15.5917 16.9704 15.664 17.0387 15.7504 17.0387H16.8754C16.8968 17.0387 16.918 17.0344 16.9378 17.0261C16.9576 17.0178 16.9755 17.0056 16.9904 16.9902C17.0054 16.9749 17.0172 16.9567 17.025 16.9367C17.0329 16.9167 17.0366 16.8954 17.0361 16.874C16.9959 15.3271 16.3731 13.8766 15.2722 12.7778ZM11.0093 11.0119C10.3222 11.0119 9.67536 10.7447 9.19121 10.2586C8.94824 10.0175 8.75631 9.72997 8.62688 9.41312C8.49745 9.09628 8.43316 8.7566 8.43786 8.41437C8.44389 7.75544 8.70706 7.11861 9.1671 6.64651C9.64925 6.15231 10.2941 5.87709 10.9832 5.86905C11.6642 5.86303 12.3251 6.12821 12.8113 6.60432C13.3095 7.09249 13.5827 7.74539 13.5827 8.44048C13.5827 9.12754 13.3155 9.7724 12.8294 10.2586C12.5909 10.4982 12.3072 10.6882 11.9948 10.8175C11.6824 10.9468 11.3474 11.0129 11.0093 11.0119ZM5.97693 8.97084C5.95885 8.79606 5.9488 8.61928 5.9488 8.44048C5.9488 8.12106 5.97894 7.80968 6.03519 7.50633C6.04925 7.43401 6.01108 7.35968 5.94478 7.32955C5.67157 7.207 5.42045 7.03825 5.20349 6.8253C4.94783 6.57742 4.74666 6.27896 4.61279 5.94898C4.47893 5.61899 4.41533 5.26473 4.42603 4.90879C4.44411 4.26392 4.70327 3.6512 5.15527 3.18914C5.65148 2.68088 6.31844 2.40365 7.0276 2.41169C7.66844 2.41771 8.28719 2.66481 8.75527 3.10276C8.91398 3.25142 9.05059 3.41615 9.1651 3.59294C9.20527 3.65522 9.28362 3.68133 9.35193 3.65722C9.7055 3.53468 10.0792 3.4483 10.4629 3.40812C10.5754 3.39606 10.6396 3.27553 10.5894 3.17508C9.93652 1.88334 8.6026 0.991375 7.05974 0.967268C4.83184 0.933116 2.97559 2.75923 2.97559 4.98312C2.97559 6.24472 3.55617 7.36972 4.46621 8.107C3.82737 8.40231 3.23876 8.81013 2.72849 9.32039C1.6276 10.4193 1.00483 11.8697 0.96465 13.4186C0.964114 13.44 0.967874 13.4614 0.975711 13.4813C0.983547 13.5013 0.9953 13.5195 1.01028 13.5349C1.02525 13.5502 1.04315 13.5624 1.06292 13.5707C1.08268 13.5791 1.10392 13.5833 1.12536 13.5833H2.25237C2.33876 13.5833 2.41108 13.515 2.41309 13.4287C2.45126 12.2635 2.92336 11.1726 3.75304 10.3449C4.34367 9.75432 5.06688 9.3445 5.85639 9.14562C5.93474 9.12553 5.98697 9.0512 5.97693 8.97084Z" fill="#345179"/>
</svg>
