<svg width="22" height="22" viewBox="0 0 22 22" fill="none" xmlns="http://www.w3.org/2000/svg">
<path d="M20.8576 0.289062C20.7558 0.289062 20.6513 0.307813 20.5468 0.35067L5.10756 6.55424H0.714704C0.47899 6.55424 0.286133 6.75246 0.286133 6.99888V15.0078C0.286133 15.2542 0.47899 15.4525 0.714704 15.4525H3.43881C3.3397 15.7632 3.28613 16.0926 3.28613 16.4275C3.28613 18.1926 4.7272 19.6283 6.50042 19.6283C7.98435 19.6283 9.23524 18.6212 9.60488 17.2605L20.5495 21.6587C20.654 21.6989 20.7585 21.7203 20.8602 21.7203C21.3129 21.7203 21.7174 21.34 21.7174 20.831V1.17835C21.7147 0.66942 21.3129 0.289062 20.8576 0.289062ZM6.50042 17.7078C5.7906 17.7078 5.2147 17.1346 5.2147 16.4275C5.2147 16.1275 5.31917 15.8408 5.50935 15.6132L7.78345 16.5266C7.72988 17.1855 7.17542 17.7078 6.50042 17.7078ZM19.7861 19.2721L5.82542 13.6632L5.47988 13.5239H2.2147V8.48281H5.47988L5.82542 8.34353L19.7861 2.7346V19.2721Z" fill="black" fill-opacity="0.85"/>
</svg>
