<svg width="22" height="22" viewBox="0 0 22 22" fill="none" xmlns="http://www.w3.org/2000/svg">
<path d="M19.363 16.037C18.6925 15.366 17.9091 14.8184 17.0487 14.4192C18.2621 13.4361 19.0362 11.9361 19.0362 10.254C19.0362 7.28612 16.5612 4.8513 13.5933 4.89683C10.671 4.94237 8.31656 7.32362 8.31656 10.254C8.31656 11.9361 9.09334 13.4361 10.3041 14.4192C9.44345 14.8181 8.66 15.3658 7.98977 16.037C6.52727 17.5022 5.69691 19.4361 5.64334 21.4986C5.64263 21.5272 5.64764 21.5557 5.65809 21.5823C5.66854 21.6089 5.68421 21.6332 5.70418 21.6536C5.72415 21.6741 5.74801 21.6904 5.77437 21.7015C5.80072 21.7126 5.82903 21.7183 5.85763 21.7183H7.35763C7.47281 21.7183 7.56924 21.6272 7.57191 21.512C7.62281 19.9584 8.25227 18.504 9.35852 17.4004C9.92461 16.8313 10.5979 16.3801 11.3396 16.073C12.0812 15.7659 12.8764 15.6089 13.6791 15.6111C15.3103 15.6111 16.8451 16.2459 17.9996 17.4004C19.1032 18.504 19.7326 19.9584 19.7862 21.512C19.7889 21.6272 19.8853 21.7183 20.0005 21.7183H21.5005C21.5291 21.7183 21.5574 21.7126 21.5837 21.7015C21.6101 21.6904 21.634 21.6741 21.6539 21.6536C21.6739 21.6332 21.6896 21.6089 21.7 21.5823C21.7105 21.5557 21.7155 21.5272 21.7148 21.4986C21.6612 19.4361 20.8308 17.5022 19.363 16.037ZM13.6791 13.6825C12.763 13.6825 11.9005 13.3263 11.2549 12.6781C10.931 12.3567 10.6751 11.9733 10.5025 11.5508C10.3299 11.1284 10.2442 10.6755 10.2505 10.2192C10.2585 9.34058 10.6094 8.49148 11.2228 7.86201C11.8657 7.20308 12.7255 6.83612 13.6442 6.82541C14.5523 6.81737 15.4335 7.17094 16.0817 7.80576C16.746 8.45666 17.1103 9.32719 17.1103 10.254C17.1103 11.17 16.7541 12.0299 16.1058 12.6781C15.7878 12.9976 15.4096 13.2509 14.993 13.4233C14.5765 13.5958 14.1299 13.6839 13.6791 13.6825ZM6.96924 10.9611C6.94513 10.7281 6.93174 10.4924 6.93174 10.254C6.93174 9.82808 6.97191 9.41291 7.04691 9.00844C7.06566 8.91201 7.01477 8.81291 6.92638 8.77273C6.56209 8.60933 6.22727 8.38433 5.93799 8.10041C5.59711 7.76989 5.32887 7.37195 5.15039 6.93197C4.97191 6.49199 4.8871 6.01964 4.90138 5.54505C4.92549 4.68523 5.27102 3.86826 5.8737 3.25219C6.53531 2.57451 7.42459 2.20487 8.37013 2.21558C9.22459 2.22362 10.0496 2.55308 10.6737 3.13701C10.8853 3.33523 11.0675 3.55487 11.2201 3.79058C11.2737 3.87362 11.3782 3.90844 11.4692 3.8763C11.9407 3.71291 12.4389 3.59773 12.9505 3.54416C13.1005 3.52808 13.1862 3.36737 13.1192 3.23344C12.2487 1.51112 10.4701 0.321834 8.41299 0.289691C5.44245 0.244155 2.96745 2.67898 2.96745 5.64416C2.96745 7.3263 3.74156 8.8263 4.95495 9.80933C4.10316 10.2031 3.31834 10.7468 2.63799 11.4272C1.17013 12.8924 0.339771 14.8263 0.2862 16.8915C0.285485 16.9201 0.290499 16.9485 0.300948 16.9751C0.311396 17.0017 0.327067 17.026 0.347037 17.0465C0.367006 17.0669 0.390872 17.0832 0.417225 17.0943C0.443579 17.1054 0.471889 17.1111 0.500486 17.1111H2.00316C2.11834 17.1111 2.21477 17.02 2.21745 16.9049C2.26834 15.3513 2.89781 13.8968 4.00406 12.7933C4.79156 12.0058 5.75584 11.4593 6.80852 11.1942C6.91299 11.1674 6.98263 11.0683 6.96924 10.9611Z" fill="black" fill-opacity="0.85"/>
</svg>
