<svg id="Logo_large" data-name="Logo large" xmlns="http://www.w3.org/2000/svg" xmlns:xlink="http://www.w3.org/1999/xlink" width="312.363" height="60.762" viewBox="0 0 312.363 60.762">
  <defs>
    <clipPath id="clip-path">
      <path id="Clip_20" data-name="Clip 20" d="M0,0H59.322V60.762H0Z" fill="none"/>
    </clipPath>
    <clipPath id="clip-path-2">
      <path id="Clip_34" data-name="Clip 34" d="M3.856,0A3.877,3.877,0,0,0,0,3.895H0A3.874,3.874,0,0,0,3.895,7.752h0A3.874,3.874,0,0,0,7.752,3.857h0A3.879,3.879,0,0,0,3.873,0H3.856Z" transform="translate(1.452 1.764)" fill="none"/>
    </clipPath>
    <clipPath id="clip-path-3">
      <path id="Clip_37" data-name="Clip 37" d="M3.859,0A3.878,3.878,0,0,0,0,3.895H0A3.877,3.877,0,0,0,3.9,7.752h0a3.878,3.878,0,0,0,3.857-3.9h0A3.877,3.877,0,0,0,3.879,0h-.02Z" transform="translate(1.209 1.658)" fill="none"/>
    </clipPath>
  </defs>
  <g id="Group_32" data-name="Group 32">
    <path id="Fill_1" data-name="Fill 1" d="M2.039,40.847A2.017,2.017,0,0,1,0,38.808V2.042A2.019,2.019,0,0,1,2.039,0H13.975A11.635,11.635,0,0,1,22.11,2.857,9.8,9.8,0,0,1,24.543,6.5,14.292,14.292,0,0,1,25.43,11.7a14.388,14.388,0,0,1-.871,5.152,9.947,9.947,0,0,1-2.406,3.673,11.542,11.542,0,0,1-8.179,2.932h-9.9V38.808A2.018,2.018,0,0,1,2.039,40.847ZM4.079,3.721V19.734h9.3c5.031,0,7.916-2.93,7.916-8.039,0-5.068-2.885-7.975-7.916-7.975Z" transform="translate(68.826 9.958)" fill="#1d3357"/>
    <path id="Fill_3" data-name="Fill 3" d="M4.134,5.167C5.426,2.2,8.656,0,13.111,0a2.013,2.013,0,0,1,2,2,2.016,2.016,0,0,1-2,2C7.168,4,4.134,8.138,4.134,14.077V28.547a2.041,2.041,0,0,1-2.068,2.066A2.039,2.039,0,0,1,0,28.547V2.325A2.039,2.039,0,0,1,2.066.259,2.041,2.041,0,0,1,4.134,2.325Z" transform="translate(98.787 20.191)" fill="#1d3357"/>
    <path id="Fill_5" data-name="Fill 5" d="M2.038,40.366A2.021,2.021,0,0,1,0,38.327V2.042A2.023,2.023,0,0,1,2.038,0H21.292a1.871,1.871,0,0,1,1.858,1.862A1.87,1.87,0,0,1,21.292,3.72H4.077V18.176h13.2a1.859,1.859,0,1,1,0,3.718H4.077V36.648H21.951a1.859,1.859,0,1,1,0,3.718Z" transform="translate(118.292 10.438)" fill="#1d3357"/>
    <path id="Fill_7" data-name="Fill 7" d="M2.039,40.847A2.017,2.017,0,0,1,0,38.808V2.042A2.019,2.019,0,0,1,2.039,0H13.975A11.635,11.635,0,0,1,22.11,2.857,9.8,9.8,0,0,1,24.543,6.5,14.292,14.292,0,0,1,25.43,11.7a14.388,14.388,0,0,1-.871,5.152,9.947,9.947,0,0,1-2.406,3.673,11.542,11.542,0,0,1-8.179,2.932h-9.9V38.808A2.018,2.018,0,0,1,2.039,40.847ZM4.079,3.721V19.734h9.3c5.032,0,7.918-2.93,7.918-8.039,0-5.068-2.886-7.975-7.918-7.975Z" transform="translate(146.12 9.958)" fill="#1d3357"/>
    <path id="Fill_9" data-name="Fill 9" d="M5.49,7.817c0,6.78,16.988,4.261,16.988,14.595,0,5.88-4.843,8.526-10.98,8.526-5.3,0-9.367-2.519-11.045-4.649A1.94,1.94,0,0,1,0,25.062a1.877,1.877,0,0,1,1.874-1.876,1.981,1.981,0,0,1,1.419.647A10.937,10.937,0,0,0,11.5,27c3.681,0,6.847-1.227,6.847-4.587,0-6.653-16.988-4-16.988-14.595C1.356,2.456,5.749,0,11.239,0c4.393,0,7.815,1.488,9.816,4.134a1.966,1.966,0,0,1,.453,1.227,1.872,1.872,0,0,1-1.874,1.872,1.833,1.833,0,0,1-1.356-.58A9.174,9.174,0,0,0,11.239,3.94c-2.907,0-5.749.906-5.749,3.877" transform="translate(176.217 19.801)" fill="#1d3357"/>
    <path id="Fill_11" data-name="Fill 11" d="M44.435,11.429V28.676a2.067,2.067,0,0,1-4.134,0V12.27c0-5.1-1.809-8.589-8.074-8.589-5.555,0-8.074,2.97-8.074,7.748V28.676a2.067,2.067,0,0,1-4.134,0V12.27c0-5.1-1.615-8.589-7.944-8.589-6.006,0-7.942,3.614-7.942,9.042V28.676a2.041,2.041,0,0,1-2.068,2.066A2.039,2.039,0,0,1,0,28.676V2.452A2.039,2.039,0,0,1,2.066.386,2.041,2.041,0,0,1,4.134,2.452V4.52C5.229,2.131,8.33,0,12.529,0c5.3,0,8.72,1.937,10.269,4.52C24.413,2,27.255,0,32.228,0c9.945,0,12.207,5.939,12.207,11.429" transform="translate(203.139 19.738)" fill="#1d3357"/>
    <path id="Fill_13" data-name="Fill 13" d="M11.173,31.065a12.852,12.852,0,0,1-8.154-2.39,7.79,7.79,0,0,1-2.236-2.9A9.606,9.606,0,0,1,0,21.83a8.238,8.238,0,0,1,3.035-6.685A13.1,13.1,0,0,1,11.3,12.723h9.106V10.978c0-4.383-2.92-7.105-7.621-7.105A8.921,8.921,0,0,0,5.3,7.166a2.075,2.075,0,0,1-1.682.905A1.875,1.875,0,0,1,1.742,6.2a1.988,1.988,0,0,1,.323-1.1C3.276,3.2,6.279,0,12.787,0c3.616,0,6.6,1.044,8.622,3.018a10.792,10.792,0,0,1,3,7.96V28.741a2,2,0,0,1-4,0V26.414a8.216,8.216,0,0,1-3.771,3.464A12.637,12.637,0,0,1,11.173,31.065ZM11.3,16.34c-4.515,0-7.1,2-7.1,5.49a4.819,4.819,0,0,0,1.792,4,8.921,8.921,0,0,0,5.57,1.485c4.261,0,8.848-2.587,8.848-8.267V16.34Z" transform="translate(251.711 19.738)" fill="#1d3357"/>
    <path id="Fill_15" data-name="Fill 15" d="M4.134,5.167C5.426,2.2,8.656,0,13.111,0a2.011,2.011,0,0,1,2,2,2.014,2.014,0,0,1-2,2C7.168,4,4.134,8.138,4.134,14.077V28.547a2.041,2.041,0,0,1-2.068,2.066A2.039,2.039,0,0,1,0,28.547V2.325A2.039,2.039,0,0,1,2.066.259,2.041,2.041,0,0,1,4.134,2.325Z" transform="translate(280.849 19.867)" fill="#1d3357"/>
    <path id="Fill_17" data-name="Fill 17" d="M4.455,2.066A2.126,2.126,0,0,1,6.523,0,2.08,2.08,0,0,1,8.589,2.066V8.848h4.2a1.938,1.938,0,0,1,0,3.875h-4.2V30.55c0,2.777,1.552,4.263,3.746,4.263a1.939,1.939,0,1,1,0,3.875c-5.1,0-7.88-3.422-7.88-8.138V12.723H1.937a1.938,1.938,0,0,1,0-3.875H4.455Z" transform="translate(297.639 11.792)" fill="#1d3357"/>
    <g id="Group_21" data-name="Group 21">
      <path id="Clip_20-2" data-name="Clip 20" d="M0,0H59.322V60.762H0Z" fill="none"/>
      <g id="Group_21-2" data-name="Group 21" clip-path="url(#clip-path)">
        <path id="Fill_19" data-name="Fill 19" d="M59.257,1.69,59.1,0,57.723,1.009a19.62,19.62,0,0,1-6.647,3.377,4.535,4.535,0,0,1-3.62-.437c-.5-.286-1.031-.549-1.47-.747a10.883,10.883,0,0,0-5.68-1.448,11.232,11.232,0,0,0-3.093.439h-.022A19.406,19.406,0,0,0,29.754.723h-.11A19.149,19.149,0,0,0,22.12,2.26a11.945,11.945,0,0,0-3.071-.417h-.065A11.729,11.729,0,0,0,13.39,3.334q-.759.365-1.513.79a4.547,4.547,0,0,1-3.62.482A19.267,19.267,0,0,1,1.588,1.272L.185.284.051,2C-.3,6.6,1.106,9.016,5.1,10.6q1.217.491,2.5.921a12.707,12.707,0,0,0-.174,2.017A11.487,11.487,0,0,0,10.1,20.906l.11,20.312A19.621,19.621,0,0,0,29.841,60.763h.11A19.618,19.618,0,0,0,49.5,41.021l-.11-20.336A11.611,11.611,0,0,0,52,13.315a10.685,10.685,0,0,0-.2-2.017c.833-.308,1.668-.615,2.5-.945C58.272,8.732,59.651,6.3,59.257,1.69" transform="translate(0 -0.001)" fill="#1d3357"/>
      </g>
    </g>
    <path id="Fill_22" data-name="Fill 22" d="M4.826,0h.11A17.351,17.351,0,0,1,9.718.659,11.656,11.656,0,0,0,7.282,2.544a11.5,11.5,0,0,0-2.411,3.6A11.856,11.856,0,0,0,0,.7,17.006,17.006,0,0,1,4.826,0" transform="translate(24.818 2.654)" fill="#13bbf7"/>
    <path id="Fill_24" data-name="Fill 24" d="M2.7,0A11.483,11.483,0,0,0,5.482,3.883L2.807,9.346,0,3.861A3.421,3.421,0,0,0,.284,3.6,11.922,11.922,0,0,0,2.7,0" transform="translate(27.034 18.075)" fill="#b50a66"/>
    <path id="Fill_26" data-name="Fill 26" d="M8.358,13.84a9.668,9.668,0,0,1-.943-4.1,10.288,10.288,0,0,1,.306-2.411l.22-.878-.855-.286C6.012,5.79,4.935,5.418,3.861,5,1.207,3.948.131,2.654,0,.065A19.2,19.2,0,0,0,5.857,2.7a6.477,6.477,0,0,0,5.024-.68c.461-.263.921-.506,1.448-.768A9.753,9.753,0,0,1,17.066,0h.22a9.743,9.743,0,0,1,9.52,9.542v.086c0,.331-.022.68-.043,1.011a8.638,8.638,0,0,1-.417,1.95,9.241,9.241,0,0,1-2.193,3.73,1.217,1.217,0,0,1-.153.174,9.318,9.318,0,0,1-1.339,1.119,9.7,9.7,0,0,1-12.372-1.031c-.067-.067-.133-.131-.2-.2A9.038,9.038,0,0,1,8.358,13.84" transform="translate(1.939 3.795)" fill="#fff"/>
    <path id="Fill_28" data-name="Fill 28" d="M30.381,31.04a17.607,17.607,0,0,1-12.5,5.241H17.79A17.67,17.67,0,0,1,.088,18.668L0,.2a11.423,11.423,0,0,0,7,2.37h.067A11.72,11.72,0,0,0,13.446.615l4.389,8.575L22.023.615a11.7,11.7,0,0,0,6.3,1.842h.067A11.476,11.476,0,0,0,35.426,0l.088,18.493A17.6,17.6,0,0,1,30.381,31.04" transform="translate(12.051 22.549)" fill="#13bbf7"/>
    <path id="Fill_30" data-name="Fill 30" d="M22.9,4.959c-1.074.439-2.15.833-3.224,1.207l-.855.284.241.878a10.264,10.264,0,0,1,.329,2.413,9.3,9.3,0,0,1-.9,4.057,8.628,8.628,0,0,1-1.731,2.589A9.663,9.663,0,0,1,9.74,19.479H9.7a9.669,9.669,0,0,1-5.441-1.666A9.5,9.5,0,0,1,2.742,16.52,9.85,9.85,0,0,1,.461,12.768a9.434,9.434,0,0,1-.394-1.929A6.642,6.642,0,0,1,0,9.918v-.09A9.689,9.689,0,0,1,2.809,2.964,9.462,9.462,0,0,1,6.427.659,10,10,0,0,1,9.455.09H9.7a9.906,9.906,0,0,1,4.738,1.227c.482.22.943.461,1.4.725a6.5,6.5,0,0,0,5.026.635A19.6,19.6,0,0,0,26.7,0c-.088,2.568-1.162,3.885-3.795,4.959" transform="translate(30.674 3.596)" fill="#fff"/>
  </g>
  <g id="Group_35" data-name="Group 35" transform="translate(13.721 7.84)">
    <path id="Clip_34-2" data-name="Clip 34" d="M3.856,0A3.877,3.877,0,0,0,0,3.895H0A3.874,3.874,0,0,0,3.895,7.752h0A3.874,3.874,0,0,0,7.752,3.857h0A3.879,3.879,0,0,0,3.873,0H3.856Z" transform="translate(1.452 1.764)" fill="none"/>
    <g id="Group_35-2" data-name="Group 35" clip-path="url(#clip-path-2)">
      <path id="Fill_33" data-name="Fill 33" d="M0,20.054H20.054V0H0Z" transform="translate(-4.698 -4.385)" fill="#1d3357"/>
    </g>
  </g>
  <g id="Group_38" data-name="Group 38" transform="translate(35.281 7.84)">
    <path id="Clip_37-2" data-name="Clip 37" d="M3.859,0A3.878,3.878,0,0,0,0,3.895H0A3.877,3.877,0,0,0,3.9,7.752h0a3.878,3.878,0,0,0,3.857-3.9h0A3.877,3.877,0,0,0,3.879,0h-.02Z" transform="translate(1.209 1.658)" fill="none"/>
    <g id="Group_38-2" data-name="Group 38" clip-path="url(#clip-path-3)">
      <path id="Fill_36" data-name="Fill 36" d="M0,20.054H20.054V0H0Z" transform="translate(-4.939 -4.493)" fill="#1d3357"/>
    </g>
  </g>
</svg>
